<svg width="26" height="20" viewBox="0 0 26 20" fill="none" xmlns="http://www.w3.org/2000/svg">
<path d="M1 4.13158L3.33301 18.676H4.99615V14.8021C4.38414 14.5111 4.15041 14.2171 4.02599 13.3407C4.14595 12.1556 4.54241 11.8936 5.52743 11.7633C6.45634 11.8246 6.90468 12.0027 7.19057 13.3407C7.04351 14.1621 6.82251 14.4971 6.10491 14.8021V18.676H7.32916V17.1914L8.41482 16.1939C8.09002 15.5843 8.0164 15.2717 8.16073 14.8021C8.57083 13.8929 8.91658 13.6114 9.80077 13.6191C10.5376 13.7558 10.8334 14.0187 11.1636 14.8021C11.3326 15.7096 10.8633 16.1939 10.8633 16.1939C10.5181 16.7032 10.1138 16.7903 9.43118 16.8203L8.41482 17.6785V18.676H17.539L17.8855 18.2585L17.3542 16.9826H16.3378V15.2197H17.3542L17.8855 13.8743L17.3542 13.0624L18.5091 11.7633L19.2252 12.3433L20.5881 11.9025L20.7498 10.8587H22.5515V11.9025L23.591 12.3433L25 4.13158L17.7238 9.51325L13.4504 3.9692C14.113 3.56115 14.4086 3.26917 14.513 2.39181C14.2583 1.43858 13.9571 1.10932 13.1039 1C12.0968 1.08832 11.6954 1.34241 11.4639 2.39181C11.5539 3.22994 11.8111 3.56873 12.5727 3.9692L8.29933 9.51325L1 4.13158Z" fill="#ED8E08" stroke="#ED8E08" stroke-opacity="0.84"/>
<ellipse cx="9.66208" cy="15.2429" rx="0.78537" ry="0.788693" fill="#ED8D08"/>
<ellipse cx="5.55038" cy="13.3873" rx="0.78537" ry="0.788693" fill="#ED8D08"/>
<path d="M20.1925 18.4627C19.5013 18.0967 18.9841 17.4783 18.7546 16.7435C18.5252 16.0087 18.6024 15.2178 18.9691 14.5446C19.3359 13.8715 19.9623 13.3713 20.7104 13.1541C21.4585 12.9369 22.7845 13.3229 23.4757 13.6889L22.6697 18.6866C22.6697 18.6866 21.8985 18.7988 21.4056 18.7531C20.9208 18.7081 20.1925 18.4627 20.1925 18.4627Z" fill="#ED8E08"/>
</svg>
