<svg width="23" height="23" viewBox="0 0 23 23" fill="none" xmlns="http://www.w3.org/2000/svg">
<path d="M6.90918 19.4004C7.27063 19.3996 7.55883 19.5162 7.82617 19.7832C8.09357 20.0504 8.21029 20.3374 8.20898 20.6963C8.20765 21.0611 8.08844 21.3529 7.82227 21.6221C7.56276 21.8844 7.27796 22.0018 6.91113 22H6.90625C6.54003 22 6.25239 21.881 5.98828 21.6172C5.72423 21.3534 5.60504 21.0657 5.60449 20.6992C5.60405 20.3345 5.72213 20.0478 5.98633 19.7852C6.25338 19.5198 6.54375 19.4013 6.90918 19.4004ZM18.4199 19.4004C18.7813 19.3996 19.0696 19.5162 19.3369 19.7832C19.6043 20.0504 19.7201 20.3374 19.7188 20.6963C19.7174 21.0612 19.5982 21.3529 19.332 21.6221C19.0726 21.8841 18.7885 22.0018 18.4219 22H18.417C18.0507 22 17.7622 21.8811 17.498 21.6172C17.2343 21.3535 17.1158 21.0655 17.1152 20.6992C17.1148 20.3345 17.2329 20.0478 17.4971 19.7852C17.7641 19.5199 18.0545 19.4013 18.4199 19.4004ZM19.7188 15.9502V16.25H6.90625C6.55655 16.25 6.29335 16.1589 6.0752 15.9502H19.7188ZM3.10938 1L3.93164 2.72949L4.20312 3.2998H21.8125C21.8483 3.2998 21.8696 3.30429 21.8789 3.30664C21.8863 3.30855 21.889 3.31015 21.8896 3.31055C21.89 3.31078 21.8953 3.31382 21.9053 3.32422C21.9159 3.33531 21.9346 3.35725 21.957 3.39551C21.9982 3.46604 21.9998 3.49994 22 3.50684C22.0001 3.51267 22.0006 3.54545 21.9629 3.61719L17.8877 10.957L17.8867 10.96C17.7562 11.1971 17.5953 11.3604 17.4033 11.4746C17.2075 11.5911 16.9957 11.6504 16.748 11.6504H7.58203L7.29688 12.168L6.03027 14.4678L5.63672 15.1816C5.56792 14.8926 5.61546 14.6238 5.77246 14.332L5.77148 14.3311L7.32129 11.5225L7.56934 11.0742L7.34961 10.6113L3.20605 1.87207L2.93457 1.2998H1V1H3.10938Z" fill="#575353" stroke="#575353" stroke-width="2"/>
</svg>
