<svg width="22" height="18" viewBox="0 0 22 18" fill="none" xmlns="http://www.w3.org/2000/svg">
<path d="M2.875 17.25V8.26562L1.15 9.58333L0 8.05L10.5417 0L21.0833 8.05L19.9333 9.55937L18.2083 8.26562V17.25H2.875ZM6.70833 11.5C6.43681 11.5 6.20936 11.408 6.026 11.224C5.84264 11.04 5.75064 10.8126 5.75 10.5417C5.74936 10.2708 5.84136 10.0433 6.026 9.85933C6.21064 9.67533 6.43808 9.58333 6.70833 9.58333C6.97858 9.58333 7.20635 9.67533 7.39163 9.85933C7.5769 10.0433 7.66858 10.2708 7.66667 10.5417C7.66475 10.8126 7.57275 11.0403 7.39067 11.225C7.20858 11.4096 6.98114 11.5013 6.70833 11.5ZM10.5417 11.5C10.2701 11.5 10.0427 11.408 9.85933 11.224C9.67597 11.04 9.58397 10.8126 9.58333 10.5417C9.5827 10.2708 9.6747 10.0433 9.85933 9.85933C10.044 9.67533 10.2714 9.58333 10.5417 9.58333C10.8119 9.58333 11.0397 9.67533 11.225 9.85933C11.4102 10.0433 11.5019 10.2708 11.5 10.5417C11.4981 10.8126 11.4061 11.0403 11.224 11.225C11.0419 11.4096 10.8145 11.5013 10.5417 11.5ZM14.375 11.5C14.1035 11.5 13.876 11.408 13.6927 11.224C13.5093 11.04 13.4173 10.8126 13.4167 10.5417C13.416 10.2708 13.508 10.0433 13.6927 9.85933C13.8773 9.67533 14.1048 9.58333 14.375 9.58333C14.6453 9.58333 14.873 9.67533 15.0583 9.85933C15.2436 10.0433 15.3353 10.2708 15.3333 10.5417C15.3314 10.8126 15.2394 11.0403 15.0573 11.225C14.8753 11.4096 14.6478 11.5013 14.375 11.5Z" fill="#575353"/>
</svg>
